<svg id="Layer_1" enable-background="new 0 0 497 497" height="512" viewBox="0 0 497 497" width="512" xmlns="http://www.w3.org/2000/svg"><g><g><g><path d="m307.389 89.112-18.705-18.805c-12.344-12.41-32.358-12.41-44.702 0-22.602 22.723-41.869 48.497-57.931 76.274-.311.537-.628 1.07-.937 1.609-8.814 15.405-25.355 25.8-44.267 25.8-41.153 0-74.51 33.567-74.457 74.952.053 41.345 34.677 75.026 75.801 74.752 31.594-.21 61.469-7.83 87.996-21.207 46.64-23.518 82.923-64.841 99.961-115.048 11.691-34.448 2.842-72.588-22.759-98.327z" fill="#ce857a"/><path d="m186.051 146.582c-.055-.013.007.002-.048-.012-8.559 16.292-25.589 27.421-45.155 27.421-41.153 0-74.51 33.567-74.457 74.952.053 41.345 34.677 75.026 75.801 74.752 31.594-.21 61.469-7.83 87.996-21.207v-37.26c-30.098-35.532-44.137-76.972-44.137-118.646z" fill="#c77464"/></g><path d="m422.543 286.291h-145.191c-41.121 0-74.457 33.514-74.457 74.854 0 41.341 33.336 74.855 74.457 74.855h145.191c41.121 0 74.457-33.514 74.457-74.855 0-41.34-33.336-74.854-74.457-74.854z" fill="#e8b5b1"/><g><path d="m402.128 198.169c-32.204-25.712-79.039-20.307-104.612 12.065-13.363 16.917-29.05 31.297-46.421 42.859-6.727 4.478-13.71 8.524-20.907 12.135-27.321 13.707-57.76 21.063-89.34 21.063h-66.391c-41.121 0-74.457 33.514-74.457 74.855s33.336 74.854 74.457 74.854h66.391c31.829 0 63.711-4.478 94.395-13.127 20.185-5.69 39.852-13.181 58.641-22.404 46.505-22.829 88.085-56.416 120.246-97.129 25.573-32.376 20.2-79.462-12.002-105.171z" fill="#d6948c"/><path d="m202.895 361.145v-38c0-23.344 10.634-44.189 27.293-57.917-27.321 13.707-57.76 21.063-89.34 21.063h-66.391c-41.121 0-74.457 33.514-74.457 74.855s33.336 74.854 74.457 74.854h66.391c31.829 0 63.711-4.478 94.395-13.127-19.532-13.493-32.348-36.102-32.348-61.728z" fill="#ce857a"/></g></g><g><g><g><ellipse cx="167.442" cy="345.495" fill="#ff8e9e" rx="29.816" ry="23.744"/></g><g><ellipse cx="329.057" cy="345.495" fill="#ff8e9e" rx="29.816" ry="23.744"/></g></g><g fill="#313d40"><path d="m197.864 296.037-21.124-3.725c-4.079-.72-7.969 2.005-8.688 6.083-.72 4.08 2.004 7.97 6.083 8.688l21.124 3.725c4.06.719 7.966-1.988 8.688-6.083.72-4.079-2.004-7.969-6.083-8.688z"/><path d="m328.448 298.396c-.72-4.079-4.606-6.803-8.688-6.083l-21.124 3.725c-4.079.719-6.803 4.608-6.083 8.688.642 3.639 3.806 6.198 7.377 6.198.433 0 .871-.037 1.312-.115l21.124-3.725c4.078-.719 6.802-4.608 6.082-8.688z"/><path d="m277.161 324.909c-4.143 0-7.5 3.357-7.5 7.5 0 3.836-3.12 6.956-6.956 6.956-3.835 0-6.955-3.12-6.955-6.956 0-4.143-3.357-7.5-7.5-7.5s-7.5 3.357-7.5 7.5c0 3.836-3.12 6.956-6.956 6.956-3.835 0-6.955-3.12-6.955-6.956 0-4.143-3.357-7.5-7.5-7.5s-7.5 3.357-7.5 7.5c0 12.106 9.849 21.956 21.955 21.956 5.533 0 10.59-2.062 14.456-5.451 3.865 3.39 8.923 5.451 14.456 5.451 12.106 0 21.956-9.85 21.956-21.956-.001-4.142-3.358-7.5-7.501-7.5z"/><path d="m184.819 311.044c-4.143 0-7.5 3.357-7.5 7.5v12c0 4.143 3.357 7.5 7.5 7.5s7.5-3.357 7.5-7.5v-12c0-4.143-3.357-7.5-7.5-7.5z"/><path d="m311.681 311.044c-4.143 0-7.5 3.357-7.5 7.5v12c0 4.143 3.357 7.5 7.5 7.5s7.5-3.357 7.5-7.5v-12c0-4.143-3.358-7.5-7.5-7.5z"/></g></g></g></svg>